<svg width="128" height="128" viewBox="0 0 128 128" fill="none"
  xmlns="http://www.w3.org/2000/svg">
  <path d="M120 57.9629V44.4761H103.305V20H89.7488V44.4761H79.707V57.9629H89.7488V107.415H120V93.9278H103.305V57.9629H120Z" fill="#003161"/>
  <path d="M39.8439 44.4761C31.3522 44.4761 25.2332 47.7229 21.362 51.9688L21.4868 20H8V107.415H21.362V100.047C25.2332 104.168 31.3522 107.415 39.8439 107.415C59.9493 107.415 67.3171 94.3024 67.3171 75.9454C67.3171 57.5883 59.9493 44.4761 39.8439 44.4761ZM37.5961 93.9278C25.8576 93.9278 21.362 90.4312 21.362 75.9454C21.362 61.4595 25.8576 57.9629 37.5961 57.9629C49.4595 57.9629 53.9551 61.4595 53.9551 75.9454C53.9551 90.4312 49.4595 93.9278 37.5961 93.9278Z" fill="#0064C5"/>
</svg>
